{
  "accessors": [
    {
      "bufferView": 2,
      "componentType": 5126,
      "count": 4,
      "max": [
        1.7093329429626465,
        1.5625829696655273,
        -0.004999999888241291
      ],
      "min": [
        -1.5675890445709229,
        -2.242417097091675,
        -0.004999999888241291
      ],
      "type": "VEC3"
    },
    {
      "bufferView": 2,
      "byteOffset": 48,
      "componentType": 5126,
      "count": 4,
      "max": [
        0.0,
        0.0,
        1.0
      ],
      "min": [
        0.0,
        0.0,
        1.0
      ],
      "type": "VEC3"
    },
    {
      "bufferView": 1,
      "componentType": 5126,
      "count": 4,
      "max": [
        2.984165906906128,
        1.0063320398330688
      ],
      "min": [
        -1.9370449781417847,
        -0.0017040000529959798
      ],
      "type": "VEC2"
    },
    {
      "bufferView": 0,
      "componentType": 5125,
      "count": 6,
      "type": "SCALAR"
    },
    {
      "bufferView": 2,
      "byteOffset": 96,
      "componentType": 5126,
      "count": 4,
      "max": [
        1.7093329429626465,
        2.2600839138031006,
        -0.004999999888241291
      ],
      "min": [
        -1.5675890445709229,
        1.6163330078125,
        -0.004999999888241291
      ],
      "type": "VEC3"
    },
    {
      "bufferView": 2,
      "byteOffset": 144,
      "componentType": 5126,
      "count": 4,
      "max": [
        0.0,
        0.0,
        -1.0
      ],
      "min": [
        0.0,
        0.0,
        -1.0
      ],
      "type": "VEC3"
    },
    {
      "bufferView": 1,
      "byteOffset": 32,
      "componentType": 5126,
      "count": 4,
      "max": [
        6.143132209777832,
        0.9962990283966064
      ],
      "min": [
        0.0,
        0.0
      ],
      "type": "VEC2"
    },
    {
      "bufferView": 0,
      "byteOffset": 24,
      "componentType": 5125,
      "count": 6,
      "type": "SCALAR"
    },
    {
      "bufferView": 2,
      "byteOffset": 192,
      "componentType": 5126,
      "count": 48,
      "max": [
        1.7093329429626465,
        2.2600839138031006,
        0.032499998807907104
      ],
      "min": [
        -1.5675890445709229,
        -2.9399170875549316,
        -0.004999999888241291
      ],
      "type": "VEC3"
    },
    {
      "bufferView": 2,
      "byteOffset": 768,
      "componentType": 5126,
      "count": 48,
      "max": [
        1.0,
        1.0,
        1.0
      ],
      "min": [
        -1.0,
        -1.0,
        0.0
      ],
      "type": "VEC3"
    },
    {
      "bufferView": 1,
      "byteOffset": 64,
      "componentType": 5126,
      "count": 48,
      "max": [
        25.922142028808594,
        11.050309181213379
      ],
      "min": [
        -23.925020217895508,
        -0.04240100085735321
      ],
      "type": "VEC2"
    },
    {
      "bufferView": 0,
      "byteOffset": 48,
      "componentType": 5125,
      "count": 84,
      "type": "SCALAR"
    },
    {
      "bufferView": 2,
      "byteOffset": 1344,
      "componentType": 5126,
      "count": 8,
      "max": [
        1.7093329429626465,
        2.2600839138031006,
        0.032499998807907104
      ],
      "min": [
        -1.5675890445709229,
        -2.9399170875549316,
        0.032499998807907104
      ],
      "type": "VEC3"
    },
    {
      "bufferView": 2,
      "byteOffset": 1440,
      "componentType": 5126,
      "count": 8,
      "max": [
        0.0,
        0.0,
        1.0
      ],
      "min": [
        0.0,
        0.0,
        1.0
      ],
      "type": "VEC3"
    },
    {
      "bufferView": 1,
      "byteOffset": 448,
      "componentType": 5126,
      "count": 8,
      "max": [
        5.456844806671143,
        1.0219719409942627
      ],
      "min": [
        -4.49130392074585,
        -5.216297149658203
      ],
      "type": "VEC2"
    },
    {
      "bufferView": 0,
      "byteOffset": 384,
      "componentType": 5125,
      "count": 12,
      "type": "SCALAR"
    },
    {
      "bufferView": 2,
      "byteOffset": 1536,
      "componentType": 5126,
      "count": 4,
      "max": [
        1.7093329429626465,
        -2.2961668968200684,
        -0.004999999888241291
      ],
      "min": [
        -1.5675890445709229,
        -2.9399170875549316,
        -0.004999999888241291
      ],
      "type": "VEC3"
    },
    {
      "bufferView": 2,
      "byteOffset": 1584,
      "componentType": 5126,
      "count": 4,
      "max": [
        0.0,
        0.0,
        -1.0
      ],
      "min": [
        0.0,
        0.0,
        -1.0
      ],
      "type": "VEC3"
    },
    {
      "bufferView": 1,
      "byteOffset": 512,
      "componentType": 5126,
      "count": 4,
      "max": [
        6.143132209777832,
        0.0037010000087320805
      ],
      "min": [
        -3.955104112625122,
        0.0037010000087320805
      ],
      "type": "VEC2"
    },
    {
      "bufferView": 0,
      "byteOffset": 432,
      "componentType": 5125,
      "count": 6,
      "type": "SCALAR"
    }
  ],
  "asset": {
    "extras": {
      "author": "Maycon Santos (https://sketchfab.com/cesarmaycon57)",
      "license": "CC-BY-4.0 (http://creativecommons.org/licenses/by/4.0/)",
      "source": "https://sketchfab.com/3d-models/street-model-ad1bacdace21434ea21e620e96827d9f",
      "title": "Street Model"
    },
    "generator": "Sketchfab-12.64.0",
    "version": "2.0"
  },
  "bufferViews": [
    {
      "buffer": 0,
      "byteLength": 456,
      "name": "floatBufferViews",
      "target": 34963
    },
    {
      "buffer": 0,
      "byteLength": 544,
      "byteOffset": 456,
      "byteStride": 8,
      "name": "floatBufferViews",
      "target": 34962
    },
    {
      "buffer": 0,
      "byteLength": 1632,
      "byteOffset": 1000,
      "byteStride": 12,
      "name": "floatBufferViews",
      "target": 34962
    }
  ],
  "buffers": [
    {
      "byteLength": 2632,
      "uri": "scene.bin"
    }
  ],
  "images": [
    {
      "uri": "textures/Material__Rua_Completa_jpg_002_baseColor.jpeg"
    },
    {
      "uri": "textures/Material__Rua_Completa_jpg_002_metallicRoughness.png"
    },
    {
      "uri": "textures/Material_002__Cal_ada_1_jpg_baseColor.jpeg"
    },
    {
      "uri": "textures/Material_002__Cal_ada_1_jpg_metallicRoughness.png"
    }
  ],
  "materials": [
    {
      "doubleSided": true,
      "emissiveFactor": [
        0.037848,
        0.037848,
        0.037848
      ],
      "name": "Material__Rua_Completa_jpg_002",
      "pbrMetallicRoughness": {
        "baseColorTexture": {
          "index": 0
        },
        "metallicRoughnessTexture": {
          "index": 1
        },
        "roughnessFactor": 0.6
      }
    },
    {
      "doubleSided": true,
      "emissiveFactor": [
        0.037848,
        0.037848,
        0.037848
      ],
      "name": "Material",
      "pbrMetallicRoughness": {
        "baseColorFactor": [
          0.6308,
          0.6308,
          0.6308,
          1.0
        ],
        "metallicFactor": 0.0,
        "roughnessFactor": 0.6
      }
    },
    {
      "doubleSided": true,
      "name": "Material_001__Meio_Fio_jpg",
      "pbrMetallicRoughness": {
        "metallicFactor": 0.0,
        "roughnessFactor": 0.6
      }
    },
    {
      "doubleSided": true,
      "name": "Material_002__Cal_ada_1_jpg",
      "pbrMetallicRoughness": {
        "baseColorTexture": {
          "index": 2
        },
        "metallicRoughnessTexture": {
          "index": 3
        },
        "roughnessFactor": 0.6
      }
    },
    {
      "doubleSided": true,
      "emissiveFactor": [
        0.037848,
        0.037848,
        0.037848
      ],
      "name": "Material__Rua_Completa_jpg",
      "pbrMetallicRoughness": {
        "baseColorFactor": [
          0.6308,
          0.6308,
          0.6308,
          1.0
        ],
        "metallicFactor": 0.0,
        "roughnessFactor": 0.6
      }
    }
  ],
  "meshes": [
    {
      "name": "Plane_Material__Rua_Completa_jpg_002_0",
      "primitives": [
        {
          "attributes": {
            "NORMAL": 1,
            "POSITION": 0,
            "TEXCOORD_0": 2
          },
          "indices": 3,
          "material": 0,
          "mode": 4
        }
      ]
    },
    {
      "name": "Plane_Material_0",
      "primitives": [
        {
          "attributes": {
            "NORMAL": 5,
            "POSITION": 4,
            "TEXCOORD_0": 6
          },
          "indices": 7,
          "material": 1,
          "mode": 4
        }
      ]
    },
    {
      "name": "Plane_Material_001__Meio_Fio_jpg_0",
      "primitives": [
        {
          "attributes": {
            "NORMAL": 9,
            "POSITION": 8,
            "TEXCOORD_0": 10
          },
          "indices": 11,
          "material": 2,
          "mode": 4
        }
      ]
    },
    {
      "name": "Plane_Material_002__Cal_ada_1_jpg_0",
      "primitives": [
        {
          "attributes": {
            "NORMAL": 13,
            "POSITION": 12,
            "TEXCOORD_0": 14
          },
          "indices": 15,
          "material": 3,
          "mode": 4
        }
      ]
    },
    {
      "name": "Plane_Material__Rua_Completa_jpg_0",
      "primitives": [
        {
          "attributes": {
            "NORMAL": 17,
            "POSITION": 16,
            "TEXCOORD_0": 18
          },
          "indices": 19,
          "material": 4,
          "mode": 4
        }
      ]
    }
  ],
  "nodes": [
    {
      "children": [
        1
      ],
      "matrix": [
        1.0,
        0.0,
        0.0,
        0.0,
        0.0,
        2.220446049250313e-16,
        -1.0,
        0.0,
        0.0,
        1.0,
        2.220446049250313e-16,
        0.0,
        0.0,
        0.0,
        0.0,
        1.0
      ],
      "name": "Sketchfab_model"
    },
    {
      "children": [
        2
      ],
      "matrix": [
        1.0,
        0.0,
        0.0,
        0.0,
        0.0,
        0.0,
        1.0,
        0.0,
        0.0,
        -1.0,
        0.0,
        0.0,
        0.0,
        0.0,
        0.0,
        1.0
      ],
      "name": "853c2abf005f427389803de45b3d01c8.fbx"
    },
    {
      "children": [
        3,
        9,
        12
      ],
      "name": "RootNode"
    },
    {
      "children": [
        4,
        5,
        6,
        7,
        8
      ],
      "matrix": [
        31.85805892944336,
        0.0,
        0.0,
        0.0,
        0.0,
        -1.3033473802437356e-06,
        -7.999999999999894,
        0.0,
        0.0,
        7.999999999999894,
        -1.3033473802437356e-06,
        0.0,
        2.0,
        5.0,
        1.0,
        1.0
      ],
      "name": "Plane"
    },
    {
      "mesh": 0,
      "name": "Plane_Material__Rua_Completa_jpg_002_0"
    },
    {
      "mesh": 1,
      "name": "Plane_Material_0"
    },
    {
      "mesh": 2,
      "name": "Plane_Material_001__Meio_Fio_jpg_0"
    },
    {
      "mesh": 3,
      "name": "Plane_Material_002__Cal_ada_1_jpg_0"
    },
    {
      "mesh": 4,
      "name": "Plane_Material__Rua_Completa_jpg_0"
    },
    {
      "children": [
        10
      ],
      "matrix": [
        1.0,
        0.0,
        0.0,
        0.0,
        0.0,
        0.999999999999978,
        -2.098567364329951e-07,
        0.0,
        0.0,
        2.098567364329951e-07,
        0.999999999999978,
        0.0,
        9.262870788574219,
        29.0,
        0.4066162109375,
        1.0
      ],
      "name": "Sun"
    },
    {
      "children": [
        11
      ],
      "matrix": [
        1.0,
        0.0,
        0.0,
        0.0,
        0.0,
        2.220446049250313e-16,
        1.0,
        0.0,
        0.0,
        -1.0,
        2.220446049250313e-16,
        0.0,
        0.0,
        0.0,
        0.0,
        1.0
      ],
      "name": "Object_10"
    },
    {
      "name": "Object_11"
    },
    {
      "children": [
        13
      ],
      "matrix": [
        6.238198932125975,
        -1.6405415717110152,
        -0.8021829184857368,
        0.0,
        1.70240689595096,
        6.257544645902781,
        0.44153364994679195,
        0.0,
        0.6608216620698084,
        -0.6338486420919016,
        6.435180699083558,
        0.0,
        -58.06170654296875,
        17.830408096313477,
        9.66302490234375,
        1.0
      ],
      "name": "Camera"
    },
    {
      "name": "Object_13"
    }
  ],
  "samplers": [
    {
      "magFilter": 9729,
      "minFilter": 9987,
      "wrapS": 10497,
      "wrapT": 10497
    }
  ],
  "scene": 0,
  "scenes": [
    {
      "name": "Sketchfab_Scene",
      "nodes": [
        0
      ]
    }
  ],
  "textures": [
    {
      "sampler": 0,
      "source": 0
    },
    {
      "sampler": 0,
      "source": 1
    },
    {
      "sampler": 0,
      "source": 2
    },
    {
      "sampler": 0,
      "source": 3
    }
  ]
}
